<?xml version="1.0" encoding="UTF-8"?>
<svg width="40px" height="40px" viewBox="0 0 40 40" version="1.1" xmlns="http://www.w3.org/2000/svg" xmlns:xlink="http://www.w3.org/1999/xlink">
    <title>Icon/Santri Default</title>
    <g id="03-Screen" stroke="none" stroke-width="1" fill="none" fill-rule="evenodd">
        <g id="iPhone-11-Pro-Copy-45" transform="translate(-113.000000, -386.000000)">
            <g id="Icon/Santri-Default" transform="translate(113.000000, 386.000000)">
                <rect id="Rectangle" fill="#12B886" x="0" y="0" width="40" height="40" rx="4"></rect>
                <path d="M16.9416342,30 C19.3800259,30 21.9844358,29.2494481 24.7548638,27.7483444 C27.8884565,26.0510179 29.4552529,24.1378465 29.4552529,22.00883 C29.4552529,20.9394162 28.8274968,20.2084866 27.5719844,19.8160412 C26.3994812,19.6198185 25.232166,19.4186902 24.0700389,19.2126564 C22.8041505,18.9771891 22.1712062,18.5160657 22.1712062,17.8292862 C22.1712062,17.1032622 22.8508431,16.2300711 24.2101167,15.209713 C25.4033722,14.336522 26.4513619,13.7723817 27.3540856,13.5172921 C27.7380026,13.6742703 27.997406,13.8116262 28.1322957,13.9293598 C28.1945525,13.9784155 28.4020752,14.1795438 28.7548638,14.5327447 C29.0350195,14.0127545 29.304799,13.5025754 29.5642023,13.0022075 C29.8547341,12.384106 30,11.8248712 30,11.3245033 C30,11.0694138 29.9014267,10.7554574 29.7042802,10.3826343 L29.7042802,10.3826343 L29.0194553,10 C27.3177691,10 25.4967575,11.2018641 23.5564202,13.6055923 C21.6783398,15.9112092 20.7392996,17.9028698 20.7392996,19.580574 C20.7392996,20.5911209 21.1387808,21.3318617 21.9377432,21.8027962 C22.5499351,22.1658082 23.4474708,22.3963699 24.6303502,22.4944812 C25.5953307,22.5239146 26.5551232,22.5582536 27.5097276,22.5974982 C26.9597925,23.5786117 25.4915694,24.4665195 23.1050584,25.2612215 C21.0194553,25.9676233 19.2555123,26.3208241 17.8132296,26.3208241 C13.7976654,26.3208241 11.7898833,24.6578366 11.7898833,21.3318617 C11.7898833,20.4096149 12.080415,18.9820947 12.6614786,17.049301 C11.9351492,17.3828796 11.2918288,18.285504 10.7315175,19.7571744 C10.2438392,21.032622 10,22.1461859 10,23.0978661 C10,25.2955605 10.5758755,26.9830758 11.7276265,28.1604121 C12.9001297,29.386804 14.6381323,30 16.9416342,30 Z" id="s" fill="#FFFFFF" fill-rule="nonzero"></path>
            </g>
        </g>
    </g>
</svg>